<?xml version="1.0" encoding="UTF-8" standalone="no"?>
<svg width="120" height="40" viewBox="0 0 120 40" fill="none" xmlns="http://www.w3.org/2000/svg">
  <path d="M60 7.11111L43.5556 14.2222V16L44.8889 16.5926V28.4444H75.5556V16.5926L76.4444 16V14.2222L60 7.11111ZM60 9.77778L71.1111 14.6667H48.8889L60 9.77778ZM73.3333 26.6667H47.1111V17.7778H73.3333V26.6667Z" fill="#005A87"/>
  <path d="M22.6667 18.6667H20.8889V28.4444H22.6667V18.6667Z" fill="#005A87"/>
  <path d="M29.3333 18.6667H26.2222C25.4815 18.6667 24.8889 19.2593 24.8889 20V27.1111C24.8889 27.8519 25.4815 28.4444 26.2222 28.4444H29.3333C30.0741 28.4444 30.6667 27.8519 30.6667 27.1111V20C30.6667 19.2593 30.0741 18.6667 29.3333 18.6667ZM28.8889 26.6667H26.6667V20.4444H28.8889V26.6667Z" fill="#005A87"/>
  <path d="M38.2222 18.6667H35.1111C34.3704 18.6667 33.7778 19.2593 33.7778 20V28.4444H35.5556V24.8889H37.7778V28.4444H39.5556V20C39.5556 19.2593 38.963 18.6667 38.2222 18.6667ZM37.7778 23.1111H35.5556V20.4444H37.7778V23.1111Z" fill="#005A87"/>
  <path d="M85.7778 18.6667C85.037 18.6667 84.4444 19.2593 84.4444 20V28.4444H86.2222V24.8889H88.4444V28.4444H90.2222V20C90.2222 19.2593 89.6296 18.6667 88.8889 18.6667H85.7778ZM88.4444 23.1111H86.2222V20.4444H88.4444V23.1111Z" fill="#005A87"/>
  <path d="M100.889 18.6667H98.6667V28.4444H100.889C101.63 28.4444 102.222 27.8519 102.222 27.1111V20C102.222 19.2593 101.63 18.6667 100.889 18.6667ZM100.444 26.6667H100V20.4444H100.444V26.6667Z" fill="#005A87"/>
  <path d="M93.7778 24.8889V18.6667H92V27.1111C92 27.8519 92.5926 28.4444 93.3333 28.4444H97.7778V26.6667H93.7778V24.8889Z" fill="#005A87"/>
  <rect width="116.8" height="28" transform="translate(1.6 6)" fill="transparent"/>
</svg>