<?xml version="1.0" encoding="UTF-8" standalone="no"?>
<svg width="120" height="40" viewBox="0 0 120 40" fill="none" xmlns="http://www.w3.org/2000/svg">
  <path d="M28.5555 9.25926H21.5556V14.6667H28.5555C30.0185 14.6667 31.2074 13.4778 31.2074 12.0148C31.2074 10.5518 30.0185 9.25926 28.5555 9.25926Z" fill="#003DA6"/>
  <path d="M28.5555 17.3148H21.5556V24.3148H15.7037V6.51855H28.5555C31.3777 6.51855 33.8518 9.08147 33.8518 12.0148C33.8518 14.948 31.4818 17.3148 28.5555 17.3148Z" fill="#003DA6"/>
  <path d="M45.5556 19.963H38.5555V24.3148H36V6.51855H38.5555V17.4074H45.5556V6.51855H48.1111V24.3148H45.5556V19.963Z" fill="#003DA6"/>
  <path d="M58.3702 15.7037C61.4887 15.7037 64 13.1924 64 10.0739C64 6.95539 61.4887 4.44446 58.3702 4.44446C55.2517 4.44446 52.7407 6.95539 52.7407 10.0739C52.7407 13.2963 55.252 15.7037 58.3702 15.7037ZM58.3702 6.81483C60.1481 6.81483 61.6296 8.29632 61.6296 10.0741C61.6296 11.8518 60.1481 13.3333 58.3702 13.3333C56.5924 13.3333 55.1111 11.8518 55.1111 10.0741C55.1111 8.29632 56.5924 6.81483 58.3702 6.81483Z" fill="#003DA6"/>
  <path d="M58.3702 26.5926C61.4887 26.5926 64 24.0813 64 20.9628C64 17.8443 61.4887 15.3334 58.3702 15.3334C55.2517 15.3334 52.7407 17.8443 52.7407 20.9628C52.7407 24.0813 55.252 26.5926 58.3702 26.5926ZM58.3702 17.7037C60.1481 17.7037 61.6296 19.1852 61.6296 20.963C61.6296 22.7407 60.1481 24.2222 58.3702 24.2222C56.5924 24.2222 55.1111 22.7407 55.1111 20.963C55.1111 19.1852 56.5924 17.7037 58.3702 17.7037Z" fill="#003DA6"/>
  <path d="M74.3703 9.25926H67.3704V14.6667H74.3703C75.8333 14.6667 77.0222 13.4778 77.0222 12.0148C77.0222 10.5518 75.8333 9.25926 74.3703 9.25926Z" fill="#003DA6"/>
  <path d="M74.3703 17.3148H67.3704V24.3148H64.8148V6.51855H74.3703C77.1925 6.51855 79.6666 9.08147 79.6666 12.0148C79.6666 14.948 77.3 17.3148 74.3703 17.3148Z" fill="#003DA6"/>
  <path d="M94.7408 6.51855L87.0371 24.3148H84.4816L77 6.51855H79.8674L85.7408 20.4444L91.7778 6.51855H94.7408Z" fill="#003DA6"/>
  <path d="M102.037 24.4184H99.4818V6.51855H102.037V24.4184Z" fill="#003DA6"/>
  <path d="M104 24.5186V6.51855H106.555V22.0741H115.481V24.5186H104Z" fill="#003DA6"/>
  <rect width="116.8" height="28" transform="translate(1.6 6)" fill="transparent"/>
</svg>