<?xml version="1.0" encoding="UTF-8" standalone="no"?>
<svg width="120" height="40" viewBox="0 0 120 40" fill="none" xmlns="http://www.w3.org/2000/svg">
  <path d="M24.6152 8C19.6 8 16 11.9594 16 16.9748C16 21.5842 19.1891 25.8198 24.6152 25.8198C30.0413 25.8198 33.2304 21.6892 33.2304 17.0798C33.2304 12.0091 29.6304 8 24.6152 8ZM24.6152 21.4792C22.05 21.4792 20.6087 19.5424 20.6087 16.9748C20.6087 14.4071 22.05 12.3906 24.6152 12.3906C27.1804 12.3906 28.6217 14.4071 28.6217 16.9748C28.6217 19.5424 27.1804 21.4792 24.6152 21.4792Z" fill="#D52331"/>
  <path d="M67.3413 18.7613V25.4L62.7326 25.4V8.42H71.7652C75.8761 8.42 78.2109 10.4366 78.2109 13.5613C78.2109 15.9183 76.7696 17.5443 74.5717 18.1347L80.2043 25.4H74.6761L69.6609 18.7613H67.3413ZM67.3413 15.0169H70.9326C72.3739 15.0169 73.4978 14.3169 73.4978 13.0312C73.4978 11.7455 72.3739 11.0455 70.9326 11.0455H67.3413V15.0169Z" fill="#D52331"/>
  <path d="M81.7913 8.42H86.4V22.7649H94.0522V25.4H81.7913V8.42Z" fill="#D52331"/>
  <path d="M35.423 8.42H40.0318V25.4H35.423V8.42Z" fill="#D52331"/>
  <path d="M44.0413 16.87C44.0413 11.7455 48.1522 8.02 53.5783 8.02C54.8413 8.02 56.1044 8.26133 57.2674 8.74399V13.4711C56.4348 12.6056 55.0978 12.1771 53.6826 12.1771C50.8087 12.1771 48.7522 14.1386 48.7522 16.87C48.7522 19.6013 50.8087 21.6178 53.6826 21.6178C55.0978 21.6178 56.4348 21.1345 57.2674 20.2689V25.0518C56.1044 25.5345 54.8413 25.7758 53.5783 25.7758C48.1522 25.7758 44.0413 22.0503 44.0413 16.87Z" fill="#D52331"/>
  <path d="M107.83 8.41998H112.439V25.4H107.83V8.41998Z" fill="#D52331"/>
  <path d="M99.1044 18.6558C98.0848 18.3598 96.3478 17.8918 96.3478 16.8748C96.3478 15.9238 97.263 15.3334 98.5261 15.3334C99.7891 15.3334 100.913 15.8707 101.746 17.0966L104.517 14.3158C102.973 12.1285 100.91 11.2629 98.5261 11.2629C95.1248 11.2629 92.1465 13.4957 92.1465 17.0166C92.1465 19.9504 93.913 21.5221 97.3674 22.4779C99.1044 22.9405 100.288 23.321 100.288 24.3779C100.288 25.4349 99.373 26.0253 97.7717 26.0253C95.9304 26.0253 94.5935 25.3253 93.6778 23.995L90.9065 26.7757C92.6435 29.0834 95.1257 30.0389 97.8761 30.0389C102.091 30.0389 104.514 27.4713 104.514 24.1418C104.514 20.3562 101.746 19.3442 99.1044 18.6558Z" fill="#D52331"/>
  <rect width="116.8" height="28" transform="translate(1.6 6)" fill="transparent"/>
</svg>