<?xml version="1.0" encoding="UTF-8" standalone="no"?>
<svg width="120" height="40" viewBox="0 0 120 40" fill="none" xmlns="http://www.w3.org/2000/svg">
  <path d="M116.904 9.12H105.888V6.8016H116.904V9.12ZM93.1616 23.9792H91.4832L84.9216 16.064V23.9792H81.5712V6.8016H83.4528L89.864 14.4576V6.8016H93.1616V23.9792ZM75.4288 15.4H68.2192V21.1216H76.5424V23.9792H64.8688V6.8016H76.4544V9.6576H68.2192V12.6528H75.4288V15.4ZM56.3296 23.9792H53.0768V9.6576H46.9328V6.8016H62.4736V9.6576H56.3296V23.9792ZM44.8592 23.9792H41.2112V6.8016H44.8592V23.9792ZM27.744 24.5056C24.2016 24.5056 21.4032 23.232 19.3264 20.6848C17.2512 18.1376 16.2128 14.8736 16.2128 10.8928C16.2128 7.0528 17.2368 3.8896 19.2864 1.5024C21.3344 -0.8848 24.3152 -2.16 28.2288 -2.16C29.2976 -2.16 30.624 -1.9776 32.208 -1.6128L32.8432 -1.448V1.8848L32.008 1.7696C30.0256 1.4576 28.5648 1.3024 27.6256 1.3024C25.5296 1.3024 23.8896 2.0944 22.7072 3.6768C21.9376 4.5888 21.372 5.7712 21.008 7.2336C21.844 6.4928 22.7392 5.9136 23.6928 5.4976C24.6928 5.0672 25.8432 4.8512 27.1392 4.8512C28.9472 4.8512 30.5168 5.2592 31.8448 6.0768C33.172 6.8944 34.1872 8.0432 34.8864 9.5232C35.5856 11.0032 35.9376 12.7024 35.9376 14.6208C35.9376 16.8544 35.496 18.7808 34.6144 20.4016C33.732 22.0224 32.5296 23.232 31.0112 24.0352C29.4912 24.8384 27.7408 25.24 25.7568 25.24C25.3264 25.24 24.8656 25.2256 24.3744 25.1968C23.8848 25.168 22.9184 25.1056 21.4768 25.008V21.4768H21.8336C22.6368 21.5632 23.244 21.624 23.6432 21.6544C24.0416 21.6848 24.4384 21.7008 24.8336 21.7008C26.4544 21.7008 27.6736 21.1632 28.4912 20.0896C29.3088 19.016 29.7184 17.2736 29.7184 14.8608C29.7184 12.8656 29.3072 11.3568 28.4848 10.3344C27.6624 9.312 26.5424 8.8016 25.1248 8.8016C24.1536 8.8016 23.2144 9.0592 22.3088 9.5744C21.4032 10.0896 20.7184 10.7888 20.2544 11.6704H19.9904C20.0032 8.024 20.3456 5.392 21.0112 3.776C22.0096 1.2576 24.256 0 27.7488 0C28.5008 0 29.4112 0.0656 30.48 0.1968L31.3984 0.3056V-0.9824L30.948 -1.064C29.8784 -1.3456 28.7328 -1.4848 27.5088 -1.4848C24.1824 -1.4848 21.7024 -0.2528 20.0672 2.2112C18.432 4.6752 17.6144 7.7904 17.6144 11.5552C17.6144 15.0224 18.5424 17.8064 20.3968 19.8992C22.252 21.992 24.7184 23.0384 27.7952 23.0384C28.6928 23.0384 29.5296 22.984 30.3056 22.8768C31.0816 22.7696 31.9568 22.5728 32.9344 22.288L33.2512 22.192V24.0896C31.3584 24.3696 29.548 24.5056 27.7952 24.5056H27.744ZM1.456 23.9792V6.8016H13.0432V9.6576H4.8064V13.7968H11.5904V16.5616H4.8064V21.0288H13.0432V23.8848H1.456V23.9792Z" fill="#006AFF"/>
  <rect width="116.8" height="28" transform="translate(1.6 6)" fill="transparent"/>
</svg>