<?xml version="1.0" encoding="UTF-8"?>
<svg width="120px" height="24px" viewBox="0 0 120 24" xmlns="http://www.w3.org/2000/svg">
  <g fill="#006AFF" fill-rule="nonzero">
    <path d="M30.595,7.827 L30.595,22.112 L26.835,22.112 L26.835,7.827 L30.595,7.827 Z M30.595,5.346 L26.835,5.346 L26.835,1.888 L30.595,1.888 L30.595,5.346 Z"/>
    <path d="M44.215,12.183 L44.215,22.112 L40.455,22.112 L40.455,12.183 C40.455,9.999 39.153,8.73 37.307,8.73 C35.461,8.73 34.157,9.999 34.157,12.183 L34.157,22.112 L30.397,22.112 L30.397,7.827 L34.157,7.827 L34.157,9.368 C35.296,8.197 36.813,7.531 38.501,7.531 C41.82,7.531 44.215,9.369 44.215,12.183 Z"/>
    <path d="M55.622,7.531 C59.674,7.531 62.886,10.744 62.886,14.97 C62.886,19.196 59.674,22.408 55.622,22.408 C53.6,22.408 51.838,21.677 50.553,20.471 L50.553,22.112 L46.793,22.112 L46.793,1.888 L50.553,1.888 L50.553,9.466 C51.838,8.262 53.6,7.531 55.622,7.531 Z M55.164,18.981 C57.341,18.981 59.126,17.212 59.126,14.97 C59.126,12.728 57.341,10.958 55.164,10.958 C52.987,10.958 51.188,12.728 51.188,14.97 C51.188,17.212 52.987,18.981 55.164,18.981 Z"/>
    <path d="M71.249,7.531 C75.301,7.531 78.513,10.744 78.513,14.97 C78.513,19.196 75.301,22.408 71.249,22.408 C69.227,22.408 67.465,21.677 66.18,20.471 L66.18,22.112 L62.42,22.112 L62.42,1.888 L66.18,1.888 L66.18,9.466 C67.465,8.262 69.227,7.531 71.249,7.531 Z M70.791,18.981 C72.968,18.981 74.753,17.212 74.753,14.97 C74.753,12.728 72.968,10.958 70.791,10.958 C68.614,10.958 66.815,12.728 66.815,14.97 C66.815,17.212 68.614,18.981 70.791,18.981 Z"/>
    <path d="M89.826,7.827 L89.826,11.23 L89.096,11.23 C86.834,11.23 85.435,12.483 85.435,14.602 L85.435,22.112 L81.675,22.112 L81.675,7.827 L85.435,7.827 L85.435,9.647 C86.361,8.442 87.784,7.827 89.826,7.827 Z"/>
    <polygon points="17.696 10.13 12.555 10.13 22.112 1.888 22.112 5.692"/>
    <polygon points="11.06 10.13 1.888 10.13 1.888 5.692 11.06 5.692"/>
    <polygon points="22.112 17.41 22.112 22.112 1.888 22.112 1.888 17.41"/>
    <rect x="1.888" y="11.843" width="20.223" height="4.437"/>
    <polygon points="94.119 22.112 90.359 22.112 90.359 7.827 94.119 7.827"/>
    <path d="M94.119,5.346 L90.359,5.346 L90.359,1.888 L94.119,1.888 L94.119,5.346 Z M118.112,14.97 C118.112,19.196 114.9,22.408 110.847,22.408 C106.795,22.408 103.583,19.196 103.583,14.97 C103.583,10.744 106.795,7.531 110.847,7.531 C114.9,7.531 118.112,10.744 118.112,14.97 Z M114.352,14.97 C114.352,12.728 112.567,10.958 110.39,10.958 C108.213,10.958 106.414,12.728 106.414,14.97 C106.414,17.212 108.213,18.981 110.39,18.981 C112.567,18.981 114.352,17.212 114.352,14.97 Z M102.853,14.97 C102.853,19.196 99.641,22.408 95.588,22.408 C91.536,22.408 88.324,19.196 88.324,14.97 C88.324,10.744 91.536,7.531 95.588,7.531 C99.641,7.531 102.853,10.744 102.853,14.97 Z M99.093,14.97 C99.093,12.728 97.308,10.958 95.131,10.958 C92.954,10.958 91.155,12.728 91.155,14.97 C91.155,17.212 92.954,18.981 95.131,18.981 C97.308,18.981 99.093,17.212 99.093,14.97 Z"/>
  </g>
</svg>